<svg xmlns="http://www.w3.org/2000/svg" width="595" height="595" viewBox="2.7 118.8 595.3 595.3"><style>.a{fill:#58585A;}.b{fill:#F8B334;}.c{fill:none;stroke-width:1.5;stroke:#F8B334;}</style><path d="M157.2 561.1c-73 0-132.8-60.6-132.8-135.2 0-74.6 59.8-135.2 132.8-135.2 73 0 132.8 60.6 132.8 135.2C290 500.6 230.3 561.1 157.2 561.1zM157.2 295.2c-70.6 0-128 58.6-128 130.8 0 72.2 57.4 130.8 128 130.8 70.6 0 128-59 128-130.8C285.2 354.2 227.8 295.2 157.2 295.2z" class="a"/><clipPath id="clip"><path d="M248.7 359c0 79 63 143.2 140.8 143.2S530.3 438 530.3 359c0-79-63-143.2-140.8-143.2S248.7 279.9 248.7 359"/></clipPath><g clip-path="url(#clip)"><rect x="503" y="432.4" width="2" height="25.3" class="b"/><rect x="492.2" y="432.4" width="2" height="25.3" class="b"/><rect x="480.6" y="432.4" width="2" height="25.3" class="b"/><rect x="469.3" y="432.4" width="2" height="25.3" class="b"/><path d="M525.5 348.1L525.5 348.1l-19.3-31.3 -20.1 28.9 -0.4 0.4 19.7 30.9L525.5 348.1zM506.2 320.1l17.6 27.7 -18.1 26.1 -17.6-27.7L506.2 320.1z" class="b"/><path d="M418 288.4L418 288.4h-41.7v158h2v-156H416V312h2v-8.4c6-0.4 21.7-2 21.7-7.2C439.2 292.4 428.8 289.6 418 288.4zM418 301.6v-11.2c12.8 1.6 19.7 4.4 19.7 6S431.2 300.4 418 301.6z" class="b"/><path d="M350.2 446l65.8 0.4v-41.3h11.6v-16.4H416v-9.2h11.6V363H416v-9.2h11.6v-16H416v-9.2h11.6V312H416v-0.4c0 0 84.2 1.6 87.8 4.4 3.6 3.2 20.1 32.1 20.1 32.1l-5.6 8.4v77h-4.8v21.7h6l0.4" class="c"/><rect x="286" y="357" width="72.6" height="15.2" class="b"/><path d="M245.9 438.4l47.3-2.4v-99.9l21.3-23.7v-16h-6.8l14-42.9 14.8 42.5h-7.6v16l22.1 23.7v110.7" class="c"/></g><path d="M389.5 504.2c-78.6 0-142.8-65.4-142.8-145.2 0-79.8 64.2-145.6 142.8-145.6s142.8 65.4 142.8 145.2S468.1 504.2 389.5 504.2zM389.5 217.8c-76.6 0-138.8 63.4-138.8 141.2 0 77.8 62.2 140.8 138.8 140.8s138.8-63.4 138.8-141.2C527.9 281.2 465.7 217.8 389.5 217.8z" class="a"/><path d="M388.7 556.3c-107.9 0-195.8-88.7-195.8-197.8 0-109.1 87.8-197.4 195.8-197.4 107.9 0 195.8 88.7 195.8 197.8C584.4 468.1 497 556.3 388.7 556.3zM388.7 184.5c-95.1 0-172.5 78.2-172.5 174.5 0 96.3 77.4 174.5 172.5 174.5 95.1 0 172.5-78.2 172.5-174.5C561.2 262.7 483.8 184.5 388.7 184.5z" class="a"/><polygon points="126 361.8 96.7 361.8 119.9 383.8 73.4 383.8 73.4 405.9 119.9 405.9 96.7 428 126 428 160.5 395.1" class="b"/><path d="M29.1 606c1.9 0 3.6 0.2 5 0.5 1.5 0.3 2.5 0.6 3.3 0.9l-1.6 6.8c-0.8-0.4-1.7-0.7-2.7-0.9 -1-0.2-2.1-0.3-3.3-0.3 -1.3 0-2.4 0.2-3.3 0.6 -0.9 0.4-1.6 0.9-2.2 1.6 -0.5 0.7-0.9 1.5-1.2 2.5 -0.2 1-0.3 2-0.3 3.2v2.4h13v6.9h-13v28.8h-8.3v-38.2c0-4.6 1.2-8.2 3.6-10.8C20.6 607.3 24.3 606 29.1 606z" class="a"/><path d="M62.2 630.6c-0.7-0.2-1.6-0.5-2.8-0.7 -1.2-0.3-2.6-0.4-4.2-0.4 -0.9 0-1.9 0.1-2.9 0.3 -1 0.2-1.7 0.3-2.1 0.5v28.6h-8.3v-34c1.6-0.6 3.6-1.1 6-1.7 2.4-0.5 5-0.8 7.9-0.8 0.5 0 1.2 0 1.9 0.1 0.7 0.1 1.5 0.2 2.2 0.3 0.7 0.1 1.4 0.3 2.1 0.4 0.7 0.2 1.2 0.3 1.6 0.4L62.2 630.6z" class="a"/><path d="M67.4 641.2c0-3.1 0.5-5.9 1.4-8.3 0.9-2.4 2.2-4.3 3.7-5.9 1.5-1.6 3.3-2.8 5.3-3.5 2-0.8 4-1.2 6.1-1.2 4.9 0 8.7 1.5 11.5 4.6 2.8 3 4.1 7.6 4.1 13.6 0 0.5 0 1 0 1.5 0 0.6-0.1 1.1-0.1 1.5H75.9c0.2 2.9 1.2 5.1 3 6.6 1.8 1.6 4.4 2.4 7.8 2.4 2 0 3.8-0.2 5.5-0.5 1.7-0.4 3-0.8 3.9-1.2l1.1 6.8c-0.5 0.2-1.1 0.5-1.9 0.7 -0.8 0.3-1.7 0.5-2.7 0.7 -1 0.2-2.1 0.4-3.3 0.5 -1.2 0.1-2.4 0.2-3.6 0.2 -3.1 0-5.9-0.5-8.2-1.4 -2.3-0.9-4.2-2.2-5.7-3.9 -1.5-1.7-2.6-3.6-3.3-5.9C67.8 646.4 67.4 643.9 67.4 641.2zM91.3 637.5c0-1.1-0.2-2.2-0.5-3.2 -0.3-1-0.8-1.9-1.4-2.7s-1.4-1.3-2.3-1.8c-0.9-0.4-1.9-0.6-3.2-0.6 -1.3 0-2.4 0.2-3.3 0.7 -1 0.5-1.8 1.1-2.4 1.9 -0.7 0.8-1.2 1.7-1.5 2.7 -0.4 1-0.6 2-0.8 3.1H91.3z" class="a"/><path d="M117.5 612.8c0 1.5-0.5 2.8-1.5 3.7 -1 0.9-2.2 1.4-3.5 1.4 -1.4 0-2.6-0.5-3.6-1.4 -1-0.9-1.5-2.1-1.5-3.7 0-1.6 0.5-2.8 1.5-3.8 1-0.9 2.2-1.4 3.6-1.4 1.4 0 2.5 0.5 3.5 1.4C117 609.9 117.5 611.2 117.5 612.8zM116.6 658.9h-8.3v-35.7h8.3V658.9z" class="a"/><path d="M141.7 606c1.9 0 3.6 0.2 5 0.5 1.5 0.3 2.5 0.6 3.3 0.9l-1.6 6.8c-0.8-0.4-1.7-0.7-2.7-0.9 -1-0.2-2.1-0.3-3.3-0.3 -1.3 0-2.4 0.2-3.3 0.6 -0.9 0.4-1.6 0.9-2.2 1.6 -0.5 0.7-0.9 1.5-1.2 2.5 -0.2 1-0.3 2-0.3 3.2v2.4h13v6.9h-13v28.8h-8.3v-38.2c0-4.6 1.2-8.2 3.6-10.8C133.1 607.3 136.8 606 141.7 606z" class="a"/><path d="M183.7 657.8c-1.6 0.4-3.7 0.8-6.2 1.3 -2.5 0.4-5.3 0.6-8.4 0.6 -2.9 0-5.3-0.4-7.2-1.2 -1.9-0.8-3.5-2-4.6-3.4 -1.2-1.5-2-3.2-2.5-5.2 -0.5-2-0.8-4.2-0.8-6.6v-20h8.3v18.7c0 3.8 0.6 6.5 1.7 8.2 1.1 1.6 3.1 2.5 5.8 2.5 1 0 2.1 0 3.2-0.1 1.1-0.1 1.9-0.2 2.5-0.3v-28.8h8.3V657.8z" class="a"/><path d="M194.2 624.4c1.6-0.5 3.7-0.9 6.2-1.3 2.5-0.4 5.4-0.6 8.5-0.6 2.9 0 5.3 0.4 7.3 1.2 2 0.8 3.5 1.9 4.7 3.3 1.2 1.4 2 3.2 2.5 5.2 0.5 2 0.7 4.2 0.7 6.6v20h-8.3v-18.8c0-1.9-0.1-3.5-0.4-4.9 -0.3-1.3-0.7-2.4-1.2-3.3 -0.6-0.8-1.3-1.5-2.3-1.8 -1-0.4-2.2-0.6-3.6-0.6 -1 0-2.1 0.1-3.3 0.2 -1.1 0.1-2 0.3-2.5 0.3v28.8h-8.3V624.4z" class="a"/><path d="M242.3 637.1c1-1.1 2.2-2.3 3.3-3.5 1.2-1.3 2.3-2.5 3.5-3.8 1.1-1.3 2.2-2.5 3.2-3.6s1.9-2.2 2.6-3h9.8c-2.3 2.5-4.7 5.2-7.2 7.9 -2.5 2.7-5 5.4-7.6 8 1.4 1.1 2.8 2.5 4.3 4.1 1.5 1.6 2.9 3.3 4.4 5.1 1.4 1.8 2.7 3.6 3.9 5.5 1.2 1.8 2.2 3.5 3.1 5h-9.5c-0.8-1.4-1.8-2.9-2.8-4.4 -1.1-1.5-2.2-3-3.4-4.5 -1.2-1.5-2.5-2.8-3.8-4.1 -1.3-1.3-2.5-2.4-3.8-3.3v16.4h-8.3v-51.6l8.3-1.4V637.1z" class="a"/><path d="M319.6 641.1c0 2.9-0.4 5.4-1.3 7.7 -0.8 2.3-2 4.3-3.6 5.9 -1.6 1.6-3.5 2.9-5.7 3.8 -2.2 0.9-4.8 1.3-7.6 1.3 -2.7 0-5.3-0.2-7.8-0.6 -2.5-0.4-4.5-0.9-6.2-1.4v-50.5l8.3-1.4v18.5c1-0.5 2.1-1 3.5-1.4 1.4-0.4 2.9-0.6 4.6-0.6 2.5 0 4.7 0.4 6.7 1.3 2 0.9 3.6 2.1 4.9 3.8 1.3 1.6 2.3 3.6 3 5.9C319.3 635.8 319.6 638.3 319.6 641.1zM311.2 640.9c0-3.5-0.7-6.3-2.1-8.3 -1.4-2-3.6-3.1-6.6-3.1 -1.4 0-2.6 0.2-3.9 0.6 -1.2 0.4-2.2 0.9-2.9 1.4v20.5c0.6 0.1 1.4 0.3 2.3 0.4 0.9 0.1 2.1 0.2 3.4 0.2 3 0 5.4-1 7.2-3.1C310.3 647.4 311.2 644.6 311.2 640.9z" class="a"/><path d="M340 622.3c2.7 0 5 0.3 6.9 1 1.9 0.7 3.4 1.6 4.5 2.9 1.1 1.2 1.9 2.7 2.4 4.5 0.5 1.8 0.7 3.7 0.7 5.8v21.6c-1.3 0.3-3.2 0.6-5.8 1s-5.5 0.6-8.7 0.6c-2.1 0-4.1-0.2-5.9-0.6 -1.8-0.4-3.3-1.1-4.5-2 -1.3-0.9-2.2-2.1-2.9-3.5 -0.7-1.5-1.1-3.3-1.1-5.4 0-2 0.4-3.8 1.2-5.2 0.8-1.4 1.9-2.6 3.2-3.4 1.4-0.9 2.9-1.5 4.7-1.9 1.8-0.4 3.7-0.6 5.6-0.6 0.9 0 1.9 0.1 2.9 0.2 1 0.1 2.1 0.3 3.2 0.6v-1.4c0-1-0.1-1.9-0.3-2.7 -0.2-0.9-0.6-1.6-1.2-2.3 -0.6-0.7-1.3-1.2-2.3-1.5 -0.9-0.4-2.1-0.5-3.5-0.5 -1.9 0-3.7 0.1-5.3 0.4 -1.6 0.3-2.9 0.6-3.9 1l-1-6.7c1-0.4 2.6-0.7 4.6-1.1C335.6 622.5 337.7 622.3 340 622.3zM340.7 653.1c2.5 0 4.5-0.1 5.8-0.4v-9.1c-0.5-0.1-1.1-0.3-2-0.4 -0.9-0.1-1.8-0.2-2.9-0.2 -0.9 0-1.8 0.1-2.8 0.2 -0.9 0.1-1.8 0.4-2.5 0.8 -0.8 0.4-1.4 0.9-1.8 1.5 -0.5 0.7-0.7 1.5-0.7 2.5 0 2 0.6 3.3 1.8 4.1S338.6 653.1 340.7 653.1z" class="a"/><path d="M362.6 641.1c0-2.6 0.4-5.1 1.2-7.4 0.8-2.3 2-4.3 3.5-6 1.5-1.7 3.4-3 5.6-4s4.6-1.4 7.4-1.4c3.4 0 6.5 0.6 9.5 1.8l-1.8 6.8c-1-0.4-2-0.8-3.2-1 -1.2-0.3-2.5-0.4-3.9-0.4 -3.2 0-5.7 1-7.4 3 -1.7 2-2.5 4.9-2.5 8.6 0 3.5 0.8 6.4 2.4 8.4 1.6 2.1 4.3 3.1 8 3.1 1.4 0 2.8-0.1 4.2-0.4 1.4-0.3 2.5-0.6 3.5-1l1.2 6.8c-0.9 0.5-2.3 0.9-4.1 1.2 -1.8 0.4-3.7 0.5-5.7 0.5 -3 0-5.7-0.5-7.9-1.4 -2.3-0.9-4.1-2.2-5.6-3.9 -1.5-1.7-2.6-3.6-3.3-5.9C363 646.2 362.6 643.8 362.6 641.1z" class="a"/><path d="M405 637.1c1-1.1 2.2-2.3 3.3-3.5 1.2-1.3 2.3-2.5 3.5-3.8 1.1-1.3 2.2-2.5 3.2-3.6s1.9-2.2 2.6-3h9.8c-2.3 2.5-4.7 5.2-7.2 7.9 -2.5 2.7-5 5.4-7.6 8 1.4 1.1 2.8 2.5 4.3 4.1 1.5 1.6 2.9 3.3 4.4 5.1 1.4 1.8 2.7 3.6 3.9 5.5s2.2 3.5 3.1 5h-9.5c-0.8-1.4-1.8-2.9-2.8-4.4 -1.1-1.5-2.2-3-3.4-4.5 -1.2-1.5-2.5-2.8-3.8-4.1 -1.3-1.3-2.5-2.4-3.8-3.3v16.4h-8.3v-51.6l8.3-1.4V637.1z" class="a"/><path d="M434.3 624.4c1.6-0.5 3.7-0.9 6.2-1.3s5.4-0.6 8.5-0.6c2.9 0 5.3 0.4 7.3 1.2 2 0.8 3.5 1.9 4.7 3.3 1.2 1.4 2 3.2 2.5 5.2 0.5 2 0.7 4.2 0.7 6.6v20h-8.3v-18.8c0-1.9-0.1-3.5-0.4-4.9 -0.3-1.3-0.7-2.4-1.2-3.3 -0.6-0.8-1.3-1.5-2.3-1.8 -1-0.4-2.2-0.6-3.6-0.6 -1 0-2.1 0.1-3.3 0.2 -1.1 0.1-2 0.3-2.5 0.3v28.8h-8.3V624.4z" class="a"/><path d="M486.1 622.3c2.7 0 5 0.3 6.9 1 1.9 0.7 3.4 1.6 4.5 2.9 1.1 1.2 1.9 2.7 2.4 4.5 0.5 1.8 0.7 3.7 0.7 5.8v21.6c-1.3 0.3-3.2 0.6-5.8 1s-5.5 0.6-8.7 0.6c-2.1 0-4.1-0.2-5.9-0.6 -1.8-0.4-3.3-1.1-4.5-2 -1.3-0.9-2.2-2.1-2.9-3.5 -0.7-1.5-1.1-3.3-1.1-5.4 0-2 0.4-3.8 1.2-5.2 0.8-1.4 1.9-2.6 3.2-3.4 1.4-0.9 2.9-1.5 4.7-1.9 1.8-0.4 3.7-0.6 5.6-0.6 0.9 0 1.9 0.1 2.9 0.2 1 0.1 2.1 0.3 3.2 0.6v-1.4c0-1-0.1-1.9-0.3-2.7 -0.2-0.9-0.6-1.6-1.2-2.3 -0.6-0.7-1.3-1.2-2.3-1.5 -0.9-0.4-2.1-0.5-3.5-0.5 -1.9 0-3.7 0.1-5.3 0.4 -1.6 0.3-2.9 0.6-3.9 1l-1-6.7c1-0.4 2.6-0.7 4.6-1.1C481.7 622.5 483.8 622.3 486.1 622.3zM486.8 653.1c2.5 0 4.5-0.1 5.8-0.4v-9.1c-0.5-0.1-1.1-0.3-2-0.4 -0.9-0.1-1.8-0.2-2.9-0.2 -0.9 0-1.8 0.1-2.8 0.2 -0.9 0.1-1.8 0.4-2.5 0.8 -0.8 0.4-1.4 0.9-1.8 1.5 -0.5 0.7-0.7 1.5-0.7 2.5 0 2 0.6 3.3 1.8 4.1S484.7 653.1 486.8 653.1z" class="a"/><path d="M510.6 624.4c1.6-0.5 3.7-0.9 6.2-1.3s5.4-0.6 8.5-0.6c2.9 0 5.3 0.4 7.3 1.2 2 0.8 3.5 1.9 4.7 3.3 1.2 1.4 2 3.2 2.5 5.2 0.5 2 0.7 4.2 0.7 6.6v20h-8.3v-18.8c0-1.9-0.1-3.5-0.4-4.9 -0.3-1.3-0.7-2.4-1.2-3.3 -0.6-0.8-1.3-1.5-2.3-1.8 -1-0.4-2.2-0.6-3.6-0.6 -1 0-2.1 0.1-3.3 0.2 -1.1 0.1-2 0.3-2.5 0.3v28.8h-8.3V624.4z" class="a"/><path d="M580 655.3c0 5.7-1.4 9.8-4.3 12.5 -2.9 2.6-7.3 4-13.3 4 -2.2 0-4.3-0.2-6.4-0.5 -2.1-0.4-3.9-0.8-5.6-1.4l1.5-7c1.4 0.6 3 1.1 4.8 1.4 1.8 0.4 3.7 0.5 5.8 0.5 3.3 0 5.7-0.7 7.1-2 1.4-1.4 2.1-3.4 2.1-6.1v-1.4c-0.8 0.4-1.9 0.8-3.2 1.2 -1.3 0.4-2.9 0.6-4.6 0.6 -2.3 0-4.4-0.4-6.2-1.1 -1.9-0.7-3.5-1.8-4.8-3.2 -1.3-1.4-2.4-3.2-3.1-5.3 -0.8-2.1-1.1-4.6-1.1-7.3 0-2.6 0.4-5 1.2-7.2 0.8-2.2 2-4 3.5-5.6 1.5-1.5 3.4-2.8 5.6-3.6 2.2-0.9 4.7-1.3 7.4-1.3 2.7 0 5.2 0.2 7.6 0.6 2.4 0.4 4.5 0.8 6.1 1.3V655.3zM557 640.1c0 3.5 0.8 6.1 2.3 7.7 1.5 1.6 3.5 2.4 5.9 2.4 1.3 0 2.6-0.2 3.7-0.5 1.2-0.4 2.1-0.8 2.8-1.3v-18.5c-0.6-0.1-1.3-0.3-2.2-0.4 -0.9-0.1-2-0.2-3.3-0.2 -3 0-5.3 1-6.9 3C557.8 634.3 557 636.9 557 640.1z" class="a"/></svg>